<?xml version="1.0" encoding="UTF-8" standalone="no"?>
<!DOCTYPE svg PUBLIC "-//W3C//DTD SVG 1.1//EN"
 "http://www.w3.org/Graphics/SVG/1.1/DTD/svg11.dtd">
<!-- Generated by graphviz version 4.0.0 (0)
 -->
<!-- Title: ROBDD Pages: 1 -->
<svg width="121pt" height="548pt"
 viewBox="0.00 0.00 121.26 548.00" xmlns="http://www.w3.org/2000/svg" xmlns:xlink="http://www.w3.org/1999/xlink">
<g id="graph0" class="graph" transform="scale(1 1) rotate(0) translate(4 544)">
<title>ROBDD</title>
<polygon fill="white" stroke="transparent" points="-4,4 -4,-544 117.26,-544 117.26,4 -4,4"/>
<!-- a -->
<g id="node1" class="node">
<title>a</title>
<ellipse fill="none" stroke="black" cx="18" cy="-522" rx="18" ry="18"/>
<text text-anchor="middle" x="18" y="-518.3" font-family="Helvetica,Arial,sans-serif" font-size="14.00">a</text>
</g>
<!-- e -->
<g id="node2" class="node">
<title>e</title>
<ellipse fill="none" stroke="black" cx="33" cy="-234" rx="18" ry="18"/>
<text text-anchor="middle" x="33" y="-230.3" font-family="Helvetica,Arial,sans-serif" font-size="14.00">e</text>
</g>
<!-- a&#45;&gt;e -->
<g id="edge1" class="edge">
<title>a&#45;&gt;e</title>
<path fill="none" stroke="black" stroke-dasharray="1,5" d="M16.38,-503.83C15.48,-493.47 14.45,-479.99 14,-468 11.18,-393.22 22.28,-305.3 28.71,-261.95"/>
<polygon fill="black" stroke="black" points="32.19,-262.34 30.23,-251.93 25.27,-261.29 32.19,-262.34"/>
</g>
<!-- b -->
<g id="node3" class="node">
<title>b</title>
<ellipse fill="none" stroke="black" cx="41" cy="-450" rx="18" ry="18"/>
<text text-anchor="middle" x="41" y="-446.3" font-family="Helvetica,Arial,sans-serif" font-size="14.00">b</text>
</g>
<!-- a&#45;&gt;b -->
<g id="edge2" class="edge">
<title>a&#45;&gt;b</title>
<path fill="none" stroke="black" d="M23.33,-504.76C26.02,-496.58 29.35,-486.45 32.39,-477.2"/>
<polygon fill="black" stroke="black" points="35.74,-478.23 35.53,-467.63 29.09,-476.04 35.74,-478.23"/>
</g>
<!-- 1 -->
<g id="node4" class="node">
<title>1</title>
<ellipse fill="none" stroke="black" cx="33" cy="-18" rx="18" ry="18"/>
<text text-anchor="middle" x="33" y="-14.3" font-family="Helvetica,Arial,sans-serif" font-size="14.00">1</text>
</g>
<!-- e&#45;&gt;1 -->
<g id="edge3" class="edge">
<title>e&#45;&gt;1</title>
<path fill="none" stroke="black" stroke-dasharray="1,5" d="M24.4,-217.79C19.09,-207.48 12.77,-193.36 10,-180 0.2,-132.81 13.7,-76.97 23.78,-44.99"/>
<polygon fill="black" stroke="black" points="27.23,-45.7 27.03,-35.11 20.58,-43.52 27.23,-45.7"/>
</g>
<!-- f -->
<g id="node5" class="node">
<title>f</title>
<ellipse fill="none" stroke="black" cx="37" cy="-162" rx="18" ry="18"/>
<text text-anchor="middle" x="37" y="-158.3" font-family="Helvetica,Arial,sans-serif" font-size="14.00">f</text>
</g>
<!-- e&#45;&gt;f -->
<g id="edge4" class="edge">
<title>e&#45;&gt;f</title>
<path fill="none" stroke="black" d="M33.99,-215.7C34.43,-207.98 34.96,-198.71 35.45,-190.11"/>
<polygon fill="black" stroke="black" points="38.95,-190.29 36.02,-180.1 31.96,-189.89 38.95,-190.29"/>
</g>
<!-- b&#45;&gt;e -->
<g id="edge10" class="edge">
<title>b&#45;&gt;e</title>
<path fill="none" stroke="black" d="M40.36,-431.85C38.98,-394.83 35.7,-307.18 34.02,-262.39"/>
<polygon fill="black" stroke="black" points="37.52,-262.09 33.64,-252.23 30.52,-262.36 37.52,-262.09"/>
</g>
<!-- c -->
<g id="node8" class="node">
<title>c</title>
<ellipse fill="none" stroke="black" cx="79" cy="-378" rx="18" ry="18"/>
<text text-anchor="middle" x="79" y="-374.3" font-family="Helvetica,Arial,sans-serif" font-size="14.00">c</text>
</g>
<!-- b&#45;&gt;c -->
<g id="edge9" class="edge">
<title>b&#45;&gt;c</title>
<path fill="none" stroke="black" stroke-dasharray="1,5" d="M49.25,-433.81C54.13,-424.82 60.42,-413.23 65.96,-403.03"/>
<polygon fill="black" stroke="black" points="69.08,-404.62 70.77,-394.16 62.92,-401.28 69.08,-404.62"/>
</g>
<!-- f&#45;&gt;1 -->
<g id="edge5" class="edge">
<title>f&#45;&gt;1</title>
<path fill="none" stroke="black" stroke-dasharray="1,5" d="M36.52,-143.87C35.84,-119.67 34.58,-75.21 33.77,-46.39"/>
<polygon fill="black" stroke="black" points="37.26,-46.09 33.48,-36.19 30.27,-46.28 37.26,-46.09"/>
</g>
<!-- h -->
<g id="node6" class="node">
<title>h</title>
<ellipse fill="none" stroke="black" cx="83" cy="-90" rx="18" ry="18"/>
<text text-anchor="middle" x="83" y="-86.3" font-family="Helvetica,Arial,sans-serif" font-size="14.00">h</text>
</g>
<!-- f&#45;&gt;h -->
<g id="edge6" class="edge">
<title>f&#45;&gt;h</title>
<path fill="none" stroke="black" d="M46.53,-146.5C52.7,-137.11 60.86,-124.69 67.9,-113.98"/>
<polygon fill="black" stroke="black" points="70.91,-115.76 73.48,-105.49 65.06,-111.92 70.91,-115.76"/>
</g>
<!-- h&#45;&gt;1 -->
<g id="edge8" class="edge">
<title>h&#45;&gt;1</title>
<path fill="none" stroke="black" d="M72.88,-74.83C66.04,-65.25 56.85,-52.39 49.02,-41.43"/>
<polygon fill="black" stroke="black" points="51.76,-39.25 43.1,-33.14 46.07,-43.32 51.76,-39.25"/>
</g>
<!-- 0 -->
<g id="node7" class="node">
<title>0</title>
<ellipse fill="none" stroke="black" cx="87" cy="-18" rx="18" ry="18"/>
<text text-anchor="middle" x="87" y="-14.3" font-family="Helvetica,Arial,sans-serif" font-size="14.00">0</text>
</g>
<!-- h&#45;&gt;0 -->
<g id="edge7" class="edge">
<title>h&#45;&gt;0</title>
<path fill="none" stroke="black" stroke-dasharray="1,5" d="M83.99,-71.7C84.43,-63.98 84.96,-54.71 85.45,-46.11"/>
<polygon fill="black" stroke="black" points="88.95,-46.29 86.02,-36.1 81.96,-45.89 88.95,-46.29"/>
</g>
<!-- c&#45;&gt;h -->
<g id="edge11" class="edge">
<title>c&#45;&gt;h</title>
<path fill="none" stroke="black" stroke-dasharray="1,5" d="M88.8,-362.43C95.09,-352.18 102.67,-337.86 106,-324 123.66,-250.42 103.48,-160.65 91.15,-117.14"/>
<polygon fill="black" stroke="black" points="94.45,-115.97 88.28,-107.36 87.73,-117.94 94.45,-115.97"/>
</g>
<!-- d -->
<g id="node9" class="node">
<title>d</title>
<ellipse fill="none" stroke="black" cx="79" cy="-306" rx="18" ry="18"/>
<text text-anchor="middle" x="79" y="-302.3" font-family="Helvetica,Arial,sans-serif" font-size="14.00">d</text>
</g>
<!-- c&#45;&gt;d -->
<g id="edge12" class="edge">
<title>c&#45;&gt;d</title>
<path fill="none" stroke="black" d="M79,-359.7C79,-351.98 79,-342.71 79,-334.11"/>
<polygon fill="black" stroke="black" points="82.5,-334.1 79,-324.1 75.5,-334.1 82.5,-334.1"/>
</g>
<!-- d&#45;&gt;e -->
<g id="edge14" class="edge">
<title>d&#45;&gt;e</title>
<path fill="none" stroke="black" d="M69.47,-290.5C63.3,-281.11 55.14,-268.69 48.1,-257.98"/>
<polygon fill="black" stroke="black" points="50.94,-255.92 42.52,-249.49 45.09,-259.76 50.94,-255.92"/>
</g>
<!-- d&#45;&gt;h -->
<g id="edge13" class="edge">
<title>d&#45;&gt;h</title>
<path fill="none" stroke="black" stroke-dasharray="1,5" d="M79.32,-287.85C80.01,-250.83 81.65,-163.18 82.49,-118.39"/>
<polygon fill="black" stroke="black" points="85.99,-118.3 82.68,-108.23 78.99,-118.17 85.99,-118.3"/>
</g>
</g>
</svg>
