<?xml version="1.0" encoding="UTF-8" standalone="no"?>
<!DOCTYPE svg PUBLIC "-//W3C//DTD SVG 1.1//EN"
 "http://www.w3.org/Graphics/SVG/1.1/DTD/svg11.dtd">
<!-- Generated by graphviz version 4.0.0 (0)
 -->
<!-- Title: ROBDD Pages: 1 -->
<svg width="98pt" height="188pt"
 viewBox="0.00 0.00 98.00 188.00" xmlns="http://www.w3.org/2000/svg" xmlns:xlink="http://www.w3.org/1999/xlink">
<g id="graph0" class="graph" transform="scale(1 1) rotate(0) translate(4 184)">
<title>ROBDD</title>
<polygon fill="white" stroke="transparent" points="-4,4 -4,-184 94,-184 94,4 -4,4"/>
<!-- a -->
<g id="node1" class="node">
<title>a</title>
<ellipse fill="none" stroke="black" cx="41" cy="-162" rx="18" ry="18"/>
<text text-anchor="middle" x="41" y="-158.3" font-family="Helvetica,Arial,sans-serif" font-size="14.00">a</text>
</g>
<!-- 0 -->
<g id="node2" class="node">
<title>0</title>
<ellipse fill="none" stroke="black" cx="18" cy="-18" rx="18" ry="18"/>
<text text-anchor="middle" x="18" y="-14.3" font-family="Helvetica,Arial,sans-serif" font-size="14.00">0</text>
</g>
<!-- a&#45;&gt;0 -->
<g id="edge1" class="edge">
<title>a&#45;&gt;0</title>
<path fill="none" stroke="black" stroke-dasharray="1,5" d="M38.27,-144.15C34.35,-119.92 27.06,-74.96 22.38,-46.05"/>
<polygon fill="black" stroke="black" points="25.78,-45.14 20.73,-35.82 18.87,-46.26 25.78,-45.14"/>
</g>
<!-- b -->
<g id="node3" class="node">
<title>b</title>
<ellipse fill="none" stroke="black" cx="64" cy="-90" rx="18" ry="18"/>
<text text-anchor="middle" x="64" y="-86.3" font-family="Helvetica,Arial,sans-serif" font-size="14.00">b</text>
</g>
<!-- a&#45;&gt;b -->
<g id="edge2" class="edge">
<title>a&#45;&gt;b</title>
<path fill="none" stroke="black" d="M46.33,-144.76C49.02,-136.58 52.35,-126.45 55.39,-117.2"/>
<polygon fill="black" stroke="black" points="58.74,-118.23 58.53,-107.63 52.09,-116.04 58.74,-118.23"/>
</g>
<!-- b&#45;&gt;0 -->
<g id="edge3" class="edge">
<title>b&#45;&gt;0</title>
<path fill="none" stroke="black" stroke-dasharray="1,5" d="M54.47,-74.5C48.3,-65.11 40.14,-52.69 33.1,-41.98"/>
<polygon fill="black" stroke="black" points="35.94,-39.92 27.52,-33.49 30.09,-43.76 35.94,-39.92"/>
</g>
<!-- 1 -->
<g id="node4" class="node">
<title>1</title>
<ellipse fill="none" stroke="black" cx="72" cy="-18" rx="18" ry="18"/>
<text text-anchor="middle" x="72" y="-14.3" font-family="Helvetica,Arial,sans-serif" font-size="14.00">1</text>
</g>
<!-- b&#45;&gt;1 -->
<g id="edge4" class="edge">
<title>b&#45;&gt;1</title>
<path fill="none" stroke="black" d="M65.94,-72.05C66.82,-64.35 67.88,-55.03 68.87,-46.36"/>
<polygon fill="black" stroke="black" points="72.37,-46.61 70.03,-36.28 65.41,-45.81 72.37,-46.61"/>
</g>
</g>
</svg>
